<?xml version="1.0" standalone="no"?><!DOCTYPE svg PUBLIC "-//W3C//DTD SVG 1.1//EN" "http://www.w3.org/Graphics/SVG/1.1/DTD/svg11.dtd"><svg t="1684128006344" class="icon" viewBox="0 0 1242 1024" version="1.1" xmlns="http://www.w3.org/2000/svg" p-id="12523" xmlns:xlink="http://www.w3.org/1999/xlink" width="242.578125" height="200"><path d="M366.551832 15.1499m83.930446 0l284.136375 0q83.930446 0 83.930447 83.930446l0 79.688475q0 83.930446-83.930447 83.930446l-284.136375 0q-83.930446 0-83.930446-83.930446l0-79.688475q0-83.930446 83.930446-83.930446Z" fill="#FFFFFF" p-id="12524"></path><path d="M734.770152 277.924916H450.482278a99.231845 99.231845 0 0 1-99.080346-99.080346V99.080346A99.231845 99.231845 0 0 1 450.482278 0H734.770152a99.231845 99.231845 0 0 1 99.080347 99.080346v79.764224A99.231845 99.231845 0 0 1 734.770152 277.924916zM450.482278 30.2998a68.856296 68.856296 0 0 0-68.780546 68.780546v79.764224a68.856296 68.856296 0 0 0 68.780546 68.780546H734.770152a68.932045 68.932045 0 0 0 68.780547-68.780546V99.080346A68.856296 68.856296 0 0 0 734.770152 30.2998z" fill="#231815" p-id="12525"></path><path d="M15.1499 140.666822m79.082478 0l996.560426 0q79.082478 0 79.082478 79.082478l0 664.020119q0 79.082478-79.082478 79.082479l-996.560426 0q-79.082478 0-79.082478-79.082479l0-664.020119q0-79.082478 79.082478-79.082478Z" fill="#FFFFFF" p-id="12526"></path><path d="M15.1499 357.158894h1154.725382v389.276681H15.1499z" fill="#FFF100" p-id="12527"></path><path d="M1108.669686 357.158894h61.205596v389.276681h-61.205596z" fill="#F8B62D" p-id="12528"></path><path d="M15.1499 357.158894h61.205596v389.276681H15.1499z" fill="#FFFFFF" p-id="12529"></path><path d="M1169.951031 372.308794H15.1499a15.1499 15.1499 0 0 1 0-30.2998h1154.801131a15.1499 15.1499 0 0 1 0 30.2998zM1169.951031 761.585476H15.1499a15.1499 15.1499 0 0 1 0-30.299801h1154.801131a15.1499 15.1499 0 0 1 0 30.299801zM16.74064 592.967088a15.1499 15.1499 0 0 1-15.1499-15.1499v-64.765823a15.1499 15.1499 0 0 1 30.2998 0v64.765823a15.1499 15.1499 0 0 1-15.1499 15.1499z" fill="#231815" p-id="12530"></path><path d="M1092.383543 978.001798H95.823118A94.308128 94.308128 0 0 1 1.59074 883.769419V672.125316a15.1499 15.1499 0 0 1 30.2998 0v211.644103a64.008328 64.008328 0 0 0 63.932578 63.932579h996.560425a63.932578 63.932578 0 0 0 63.932578-63.932579V219.673551a64.008328 64.008328 0 0 0-63.932578-63.932578H95.823118A64.008328 64.008328 0 0 0 31.89054 219.673551v212.553097a15.1499 15.1499 0 0 1-30.2998 0V219.673551a94.308128 94.308128 0 0 1 94.232378-94.156629h996.560425A94.308128 94.308128 0 0 1 1186.615921 219.673551v664.020119a94.308128 94.308128 0 0 1-94.232378 94.308128z" fill="#231815" p-id="12531"></path><path d="M740.754363 835.819986a320.420386 320.420386 0 1 1 89.990406-69.841039" fill="#FFFFFF" p-id="12532"></path><path d="M592.512591 887.253896a335.343038 335.343038 0 1 1 249.518854-111.124516 15.1499 15.1499 0 1 1-22.72485-20.300867 304.058494 304.058494 0 1 0-85.672685 66.583811 15.1499 15.1499 0 0 1 14.013657 26.891073 336.706529 336.706529 0 0 1-155.134976 37.950499z" fill="#231815" p-id="12533"></path><path d="M594.10333 540.396935m-175.284343 0a175.284344 175.284344 0 1 0 350.568687 0 175.284344 175.284344 0 1 0-350.568687 0Z" fill="#00A0E9" p-id="12534"></path><path d="M648.036975 367.688074a175.057095 175.057095 0 0 1-136.349101 317.617655 175.208594 175.208594 0 1 0 136.349101-317.617655z" fill="#036EB8" p-id="12535"></path><path d="M537.063957 704.470352a175.057095 175.057095 0 0 1 136.500599-318.147901A175.208594 175.208594 0 1 0 537.063957 704.470352z" fill="#FFFFFF" p-id="12536"></path><path d="M594.10333 730.831178a190.509993 190.509993 0 1 1 190.434244-190.434243 190.661492 190.661492 0 0 1-190.434244 190.434243z m0-350.644436a160.210193 160.210193 0 1 0 160.134444 160.210193 160.361692 160.361692 0 0 0-160.134444-160.210193z" fill="#231815" p-id="12537"></path></svg>